<svg width="87" height="47" viewBox="0 0 87 47" fill="none" xmlns="http://www.w3.org/2000/svg">
<path fill-rule="evenodd" clip-rule="evenodd" d="M68.3006 45.7281C67.6427 45.7281 67.1074 45.4817 66.749 45.1276C65.335 43.7308 66.2011 41.3396 68.3427 41.3396C69.7094 41.3396 70.9219 42.8354 70.2666 44.4027C69.9541 45.15 69.1646 45.7281 68.3006 45.7281ZM62.2793 36.9089C61.8859 37.1581 60.7 37.3696 60.143 37.4389C56.4895 37.8929 52.9244 36.3097 50.8079 33.4725C50.1922 32.6471 49.3208 31.0992 49.0766 29.7777C49.1155 29.6042 48.9992 29.2114 48.9624 28.988C48.9255 28.7641 48.8606 28.3922 48.8478 28.1321C48.7765 26.6854 48.9104 25.3631 49.391 24.0336C49.4734 23.8058 49.5953 23.5544 49.6496 23.3216L47.3709 22.0557C46.8615 23.0185 46.4158 24.6661 46.2814 25.7766C46.1595 26.7841 46.1323 28.0887 46.2912 29.1696C46.4395 30.1787 46.6756 31.1207 47.045 32.0446C47.3869 32.8994 47.7737 33.6531 48.274 34.4024L49.3245 35.7994C49.6986 36.2462 50.242 36.7553 50.6915 37.133C53.4448 39.4466 56.9663 40.4973 60.6083 40.0191C62.5544 39.7636 64.1885 38.95 64.3763 38.9344C64.4158 39.1042 64.9053 39.9224 65.0011 40.0818L65.6422 41.213C65.4154 41.5518 65.2372 41.6969 65.0448 42.1769C64.789 42.8149 64.6927 43.4115 64.821 44.1441C64.8539 44.3321 64.9311 44.616 64.9964 44.7704C65.1639 45.1667 65.3271 45.4348 65.575 45.7531C66.6246 47.1009 68.6099 47.3791 70.1024 46.475C70.426 46.2789 70.6978 46.029 70.9301 45.7414C73.0302 43.1396 70.7308 39.3756 67.3722 40.1581C67.1662 39.7688 66.9595 39.4066 66.7312 39.0269C66.6378 38.8715 66.1456 38.048 66.1063 37.8795C66.801 37.4142 67.4051 36.892 67.9947 36.3077C68.1565 36.1474 68.2374 36.0206 68.3958 35.8648L69.1689 34.9079C69.3021 34.7226 69.4227 34.569 69.5243 34.3771L67.2034 33.1112C67.0263 33.446 66.522 34.0251 66.2434 34.3033C65.6286 34.9171 65.4514 35.0863 64.7739 35.5765C64.652 35.6648 64.5783 35.7234 64.4526 35.8038C63.8717 36.175 63.1192 36.5692 62.4592 36.8073L62.2793 36.9089ZM68.3849 3.40468C68.3849 1.41431 70.7254 0.469041 72.1099 1.78957C72.9162 2.55866 73.0175 3.85379 72.2805 4.76845C72.2202 4.84339 72.2314 4.84512 72.1708 4.9119C71.8903 5.22082 71.2329 5.55677 70.7902 5.55673C69.9561 5.55673 69.6033 5.48122 68.9859 4.87139C68.6661 4.5555 68.3849 4.02288 68.3849 3.40468ZM68.1318 6.02087L66.9502 8.3839C66.5528 9.1789 66.1557 9.93083 65.7547 10.7328C65.3579 11.5265 64.9918 12.3191 64.5734 13.0961C64.4614 13.3041 64.3745 13.451 64.2637 13.6726L63.3635 15.4729C63.1668 15.4566 61.6035 14.8708 60.2374 14.7592C58.9204 14.6516 58.5527 14.6547 57.2449 14.7977C57.0314 14.821 56.8714 14.8522 56.6597 14.8877C54.7069 15.2156 52.7848 16.091 51.2771 17.2271L50.2403 18.0892C50.1055 18.192 50.0179 18.2906 49.8922 18.4162C49.764 18.5442 49.7048 18.5972 49.5896 18.7465L48.9983 19.4211C48.9052 19.5401 48.7587 19.6787 48.7212 19.8192C48.8195 19.9533 49.6279 20.3522 49.8362 20.4766C50.0275 20.5908 50.2235 20.6935 50.4093 20.7895L50.9999 21.1273L51.4743 20.589C51.5536 20.4991 51.5586 20.4689 51.6428 20.3778C51.7759 20.2339 51.8681 20.1568 52.0188 20.0365C52.427 19.7109 52.534 19.5273 53.211 19.0766C53.8024 18.6829 54.4054 18.3379 55.0744 18.0706C57.8761 16.9513 60.8728 17.0959 63.547 18.4542C64.0253 18.6971 64.7917 19.1989 65.2071 19.537L66.6127 20.9163C66.7859 20.8004 66.9767 20.7018 67.1743 20.5918L68.8913 19.6082C68.8605 19.4928 68.8077 19.4285 68.7326 19.345C68.6464 19.2493 68.6217 19.2099 68.5412 19.1143C67.8755 18.3239 67.0877 17.6645 66.2633 17.0461C66.0929 16.9183 65.9149 16.801 65.7348 16.6884C65.5401 16.5666 65.3776 16.4647 65.178 16.3591L67.5692 11.6612C67.7215 11.3564 69.9045 7.08639 69.9462 6.90703C70.8032 6.97832 71.0883 7.01243 71.9965 6.63644C73.0801 6.1878 73.9971 4.89043 73.9971 3.70005C73.9971 2.50013 73.78 1.82368 72.9317 0.967689C71.2174 -0.762026 68.2227 -0.0381348 67.3475 2.07175C66.8419 3.29036 66.9885 4.62685 67.823 5.65447C67.9265 5.78187 68.0581 5.91082 68.1318 6.02087ZM80.411 27.5413C80.3862 27.4055 80.5111 26.8443 80.5968 26.6298C81.3949 24.6323 84.629 24.8396 84.8307 27.4261C84.8499 27.6724 84.7356 28.1268 84.656 28.3261C84.251 29.3396 83.0185 30.0031 81.7783 29.5075C81.3032 29.3178 80.8703 28.8943 80.6488 28.4428C80.473 28.0844 80.4922 27.9635 80.4467 27.6744C80.4177 27.4904 80.4323 27.6574 80.411 27.5413ZM86.1076 27.3843V27.6465C86.0773 28.4523 85.7631 29.26 85.1055 29.9149C83.801 31.2138 81.8727 31.3072 80.4282 30.1824C79.9935 29.8439 79.3585 29.0048 79.3139 28.4696H71.5497C71.5497 29.2679 71.0962 31.3608 70.7058 32.0985C70.5086 31.9941 68.5814 30.8783 68.3849 30.8326C68.467 30.6616 68.5588 30.3145 68.6208 30.0979C69.0742 28.5139 69.0979 26.6265 68.6974 25.0346C68.6124 24.6967 68.5301 24.4105 68.4328 24.1176C68.3613 23.902 68.1472 23.464 68.1318 23.2793C68.3289 23.2334 70.1992 22.1252 70.4104 22.0135C70.4842 22.153 70.5637 22.3539 70.6279 22.5134C71.0993 23.6844 71.3559 24.5643 71.5154 25.8455C71.5366 26.016 71.5526 26.2755 71.5919 26.4442H79.3139C79.3897 26.1188 79.5877 25.7365 79.7773 25.4728C80.3825 24.6313 81.4103 23.9967 82.6053 23.9967C84.6764 23.9967 86.0414 25.647 86.1076 27.3843ZM64.4626 24.1767C64.7568 24.0485 65.4344 23.6018 65.6605 23.4665L66.9503 22.6886C66.8976 22.4625 66.2894 21.6543 66.0891 21.3978C65.0949 20.1245 63.2631 18.8666 61.6758 18.4266C61.094 18.2652 61.3059 18.0937 61.0175 19.2454L60.6734 20.6737C60.6418 20.8238 60.5925 21.0775 60.5411 21.2503C62.2081 21.6612 63.6139 22.7351 64.4626 24.1767ZM51.0421 32.1407C51.1589 32.6423 52.2837 33.7796 52.6982 34.1979C53.4706 34.9773 54.7711 35.7217 55.8264 36.0911C56.0874 36.1825 56.5184 36.3604 56.823 36.3604C56.8288 36.1022 57.41 33.965 57.4892 33.4817C55.8556 33.0717 54.4752 32.0241 53.6277 30.6188L53.5739 30.5794C52.8313 31.0766 51.7826 31.6448 51.0421 32.1407ZM49.6918 26.9083C49.6918 28.1614 49.6838 28.6882 50.044 29.9318C50.24 30.6087 50.493 31.2017 50.7889 31.7609C50.936 31.7267 51.3331 31.4678 51.464 31.3812L53.4017 30.2104C52.9697 29.3567 52.7261 28.3915 52.7261 27.3692C52.7261 26.9152 52.7745 26.4726 52.8657 26.0459C52.8599 25.9699 52.8565 25.8919 52.8565 25.8112C52.3752 25.6991 51.898 25.5823 51.3966 25.4567L49.9449 25.0939C49.8203 25.6288 49.6918 26.2536 49.6918 26.9083ZM54.1224 19.3551C54.2471 19.5907 54.3702 19.774 54.5003 19.9899L55.6837 21.9291C55.7458 21.8993 55.8618 21.8701 55.9962 21.8433C56.8957 21.3486 57.9291 21.067 59.0282 21.067C59.3602 21.067 59.6861 21.0927 60.0042 21.1423L60.7051 18.1735C60.3283 18.1652 59.831 18.0048 58.9329 18.0048C58.0145 18.0048 56.9642 18.1747 56.2581 18.4103C55.1113 18.793 55.1467 18.8131 54.1224 19.3551ZM65.1646 28.8106C65.1787 28.9892 65.1525 28.9862 65.3675 29.0396C65.6759 29.1162 65.9131 29.1772 66.2162 29.2459C66.8135 29.3812 67.3418 29.5162 67.9208 29.6511C67.9647 29.1242 68.2162 28.6033 68.2162 27.3303C68.2162 26.9468 68.1687 26.4823 68.1242 26.1141C68.0496 25.4973 67.8327 24.594 67.6014 24.0207C67.5276 23.8378 67.4769 23.7176 67.4027 23.5442C67.3378 23.3924 67.2351 23.204 67.2034 23.0684C67.0627 23.0801 66.9687 23.1609 66.8577 23.2291L64.6741 24.5669C65.094 25.411 65.3304 26.3624 65.3304 27.3692C65.3304 27.8652 65.2729 28.3477 65.1646 28.8106ZM58.0041 33.588C57.9955 33.7904 57.8875 34.129 57.8442 34.3012L57.3294 36.487C59.1761 36.9172 61.4558 36.4719 63.139 35.6295C63.373 35.5124 63.5663 35.3792 63.7854 35.2633C63.7508 35.1333 63.6799 35.0661 63.6187 34.9658L62.3508 32.858C62.2506 32.9061 62.0905 32.9419 61.9174 32.9712C61.052 33.4185 60.0696 33.6713 59.0282 33.6713C58.6794 33.6713 58.3374 33.6426 58.0041 33.588ZM50.0715 24.714C50.2932 24.7325 50.5894 24.8371 50.8276 24.8863L53.0358 25.4138C53.4577 24.1199 54.2867 23.0099 55.3718 22.2356C54.9927 21.5297 54.2016 20.3958 53.7849 19.6082C53.3608 19.8326 52.6382 20.4751 52.2755 20.8417C52.1613 20.957 52.1344 21.0245 52.0236 21.1383C51.3456 21.8348 50.0889 23.9368 50.0715 24.714ZM62.6475 32.5286C62.6786 32.6525 63.2869 33.6101 63.3818 33.7681C63.514 33.988 63.622 34.1547 63.7513 34.3692L64.1231 35.0101C64.329 34.9551 65.1522 34.2425 65.3367 34.0717L66.0967 33.2281C66.7663 32.4069 67.5452 31.0997 67.7942 30.0309C67.5714 30.0259 66.6182 29.7676 66.3514 29.7013C66.1032 29.6397 65.8552 29.5884 65.6336 29.533C65.502 29.5001 65.1683 29.4329 65.0017 29.3831C64.5691 30.6665 63.7344 31.7649 62.6475 32.5286ZM66.9081 43.4916C66.9081 45.3539 69.6087 45.2962 69.6087 43.4916C69.6087 42.8175 69.0177 42.1835 68.2162 42.1835C67.5083 42.1835 66.908 42.7838 66.9081 43.4916ZM69.2289 3.36247C69.2289 4.13128 69.7874 4.71278 70.6636 4.71278C71.3506 4.71274 71.9295 4.11216 71.9295 3.32027C71.9295 2.61246 71.2685 2.02338 70.5792 2.02334C69.8735 2.02334 69.2289 2.63374 69.2289 3.36247ZM81.2972 27.3724V27.5834C81.2972 28.2201 81.8843 28.8071 82.5209 28.8071H82.7319C83.3685 28.8071 83.9556 28.22 83.9556 27.5834V27.3303C83.9556 26.7576 83.3399 26.1487 82.7741 26.1487C82.172 26.1487 81.7225 26.2813 81.4216 26.8638C81.349 27.0041 81.2972 27.154 81.2972 27.3724ZM62.2793 36.9089C62.0856 36.9232 61.5507 37.1176 61.2361 37.1866C59.9342 37.4725 58.9561 37.5225 57.5859 37.3698C56.1548 37.2104 54.6288 36.58 53.65 35.9467C52.5071 35.2071 51.6876 34.4807 50.8547 33.383C50.4714 32.8778 50.1427 32.3223 49.8465 31.7328C49.427 30.8981 49.2062 29.992 49.1569 29.8894C49.1076 29.7867 49.1466 29.8427 49.0766 29.7777C49.3208 31.0992 50.1922 32.6471 50.8079 33.4725C52.9244 36.3097 56.4895 37.8929 60.143 37.4389C60.7 37.3696 61.8859 37.1581 62.2793 36.9089ZM59.0005 21.6655C62.1625 21.6655 64.7258 24.2288 64.7258 27.3908C64.7258 30.5528 62.1625 33.1162 59.0005 33.1162C55.8384 33.1162 53.2751 30.5528 53.2751 27.3908C53.2751 24.2288 55.8384 21.6655 59.0005 21.6655Z" fill="url(#paint0_linear_1_704)"/>
<path d="M5.57592 29.4725H0V10.2904H7.50568L10.1602 19.8637C10.1958 19.9926 10.267 20.2905 10.3692 20.753C10.4715 21.2198 10.6227 21.8601 10.8139 22.6739C10.9339 22.0335 11.0451 21.4688 11.1518 20.9887C11.2541 20.5084 11.3475 20.1438 11.4231 19.8993L14.1443 10.2904H21.6366V29.4725H16.0608L16.1141 20.0326C16.1141 19.459 16.1141 18.8988 16.1186 18.3563C16.123 17.8139 16.1319 17.2536 16.1407 16.6711C15.9318 17.6626 15.6783 18.7431 15.3848 19.9126L15.3448 20.0815L12.9749 29.4725H8.67509L6.27845 20.2905C6.16728 19.8726 6.05173 19.3968 5.94056 18.8588C5.82939 18.3208 5.67819 17.5915 5.49587 16.6711C5.52254 17.4981 5.54483 18.2051 5.55812 18.7921C5.57147 19.3834 5.57592 19.8592 5.57592 20.2149V29.4725ZM31.4234 18.9077H33.402C34.6827 18.9077 35.5408 18.7654 35.9766 18.4764C36.4079 18.1918 36.6257 17.6849 36.6257 16.9512C36.6257 16.2131 36.4167 15.7018 36.0033 15.4172C35.5852 15.1282 34.7183 14.9859 33.402 14.9859H31.4234V18.9077ZM25.2605 29.4725V10.2904H33.153C34.9006 10.2904 36.2834 10.3927 37.3017 10.5972C38.3243 10.8018 39.178 11.1264 39.8628 11.5799C40.7477 12.1801 41.4102 12.9228 41.8415 13.8076C42.2772 14.6924 42.4951 15.7418 42.4951 16.9601C42.4951 19.1033 41.8593 20.7485 40.592 21.8912C39.3248 23.034 37.4928 23.6032 35.1051 23.6032H31.4234V29.4725H25.2605Z" fill="#434242"/>
<path d="M2.03176 37.5393V32.4416H0.128174V31.764H4.70163V32.4416H2.79804V37.5393H2.03176ZM11.1395 34.7283C11.1395 33.7711 11.3976 33.021 11.9125 32.4791C12.4274 31.9374 13.0915 31.6672 13.9061 31.6672C14.4399 31.6672 14.9198 31.7949 15.3487 32.049C15.7762 32.3031 16.1029 32.658 16.3274 33.1137C16.5519 33.5681 16.6648 34.0843 16.6648 34.6611C16.6648 35.2459 16.5465 35.7702 16.3099 36.2313C16.0732 36.6937 15.7385 37.0433 15.3057 37.2799C14.8714 37.5179 14.4036 37.6361 13.9021 37.6361C13.3577 37.6361 12.8724 37.5044 12.4435 37.2422C12.016 36.9801 11.6907 36.6225 11.4702 36.1681C11.2497 35.7151 11.1395 35.2351 11.1395 34.7283ZM11.9299 34.7417C11.9299 35.4368 12.1168 35.9839 12.4906 36.3831C12.8643 36.7825 13.3334 36.9828 13.8981 36.9828C14.4735 36.9828 14.9453 36.7811 15.3177 36.3778C15.6888 35.9745 15.8743 35.4018 15.8743 34.6597C15.8743 34.1905 15.795 33.7805 15.6363 33.431C15.4778 33.0814 15.2451 32.8099 14.94 32.6176C14.6335 32.4254 14.2906 32.3286 13.9102 32.3286C13.3697 32.3286 12.9046 32.5141 12.5148 32.8852C12.1249 33.2562 11.9299 33.8746 11.9299 34.7417ZM23.4414 34.7283C23.4414 33.7711 23.6996 33.021 24.2144 32.4791C24.7293 31.9374 25.3935 31.6672 26.2081 31.6672C26.7418 31.6672 27.2218 31.7949 27.6506 32.049C28.0782 32.3031 28.4048 32.658 28.6293 33.1137C28.8538 33.5681 28.9668 34.0843 28.9668 34.6611C28.9668 35.2459 28.8485 35.7702 28.6119 36.2313C28.3752 36.6937 28.0405 37.0433 27.6076 37.2799C27.1734 37.5179 26.7055 37.6361 26.2041 37.6361C25.6596 37.6361 25.1744 37.5044 24.7455 37.2422C24.318 36.9801 23.9927 36.6225 23.7722 36.1681C23.5517 35.7151 23.4414 35.2351 23.4414 34.7283ZM24.2319 34.7417C24.2319 35.4368 24.4188 35.9839 24.7926 36.3831C25.1663 36.7825 25.6354 36.9828 26.2001 36.9828C26.7755 36.9828 27.2473 36.7811 27.6197 36.3778C27.9907 35.9745 28.1763 35.4018 28.1763 34.6597C28.1763 34.1905 28.097 33.7805 27.9383 33.431C27.7797 33.0814 27.5471 32.8099 27.242 32.6176C26.9354 32.4254 26.5926 32.3286 26.2122 32.3286C25.6717 32.3286 25.2066 32.5141 24.8167 32.8852C24.4269 33.2562 24.2319 33.8746 24.2319 34.7417ZM35.9451 37.5393V31.764H36.7113V36.8618H39.5506V37.5393H35.9451Z" fill="#434242"/>
<defs>
<linearGradient id="paint0_linear_1_704" x1="46.1809" y1="34.5279" x2="74.5586" y2="22.4381" gradientUnits="userSpaceOnUse">
<stop stop-color="#55B4AF"/>
<stop offset="0.458824" stop-color="#399793"/>
<stop offset="0.983985" stop-color="#22BC8E"/>
</linearGradient>
</defs>
</svg>
